<svg width="33" height="33" viewBox="0 0 33 33" fill="none" xmlns="http://www.w3.org/2000/svg">
<path d="M26.5 13.4314C26.5 12.8256 26.5 12.5226 26.3802 12.3824C26.2763 12.2607 26.1203 12.1961 25.9608 12.2086C25.7769 12.2231 25.5627 12.4373 25.1343 12.8657L21.5 16.5L25.1343 20.1343C25.5627 20.5627 25.7769 20.7769 25.9608 20.7914C26.1203 20.8039 26.2763 20.7393 26.3802 20.6176C26.5 20.4774 26.5 20.1744 26.5 19.5686V13.4314Z" stroke="black" stroke-width="2" stroke-linecap="round" stroke-linejoin="round"/>
<path d="M6.5 14.3C6.5 12.6198 6.5 11.7798 6.82698 11.138C7.1146 10.5735 7.57354 10.1146 8.13803 9.82698C8.77976 9.5 9.61984 9.5 11.3 9.5H16.7C18.3802 9.5 19.2202 9.5 19.862 9.82698C20.4265 10.1146 20.8854 10.5735 21.173 11.138C21.5 11.7798 21.5 12.6198 21.5 14.3V18.7C21.5 20.3802 21.5 21.2202 21.173 21.862C20.8854 22.4265 20.4265 22.8854 19.862 23.173C19.2202 23.5 18.3802 23.5 16.7 23.5H11.3C9.61984 23.5 8.77976 23.5 8.13803 23.173C7.57354 22.8854 7.1146 22.4265 6.82698 21.862C6.5 21.2202 6.5 20.3802 6.5 18.7V14.3Z" stroke="black" stroke-width="2" stroke-linecap="round" stroke-linejoin="round"/>
</svg>
