<svg width="33" height="33" viewBox="0 0 33 33" fill="none" xmlns="http://www.w3.org/2000/svg">
<path d="M9.5 9.5C7.84315 9.5 6.5 10.8431 6.5 12.5V20.5C6.5 22.1569 7.84315 23.5 9.5 23.5H18.5C19.8527 23.5 20.9962 22.6048 21.3705 21.3745M21.5 16.5L25.1343 12.8657C25.5627 12.4373 25.7769 12.2231 25.9608 12.2086C26.1203 12.1961 26.2763 12.2607 26.3802 12.3824C26.5 12.5226 26.5 12.8256 26.5 13.4314V19.5686C26.5 20.1744 26.5 20.4774 26.3802 20.6176C26.2763 20.7393 26.1203 20.8039 25.9608 20.7914C25.7769 20.7769 25.5627 20.5627 25.1343 20.1343L21.5 16.5ZM21.5 16.5V14.3C21.5 12.6198 21.5 11.7798 21.173 11.138C20.8854 10.5735 20.4265 10.1146 19.862 9.82698C19.2202 9.5 18.3802 9.5 16.7 9.5H14M6.5 6.5L26.5 26.5" stroke="black" stroke-width="2" stroke-linecap="round" stroke-linejoin="round"/>
</svg>
